<svg viewBox="0 0 111 30" xmlns="http://www.w3.org/2000/svg">
  <g fill="#E50914">
    <path d="M105.06 1.527c-.61-.02-1.24-.02-1.86-.02H93.4v26.888h4.84V18.63h6.04c1.71 0 3.32-.36 4.73-1.05 1.41-.69 2.54-1.66 3.37-2.91.83-1.25 1.25-2.7 1.25-4.33 0-1.63-.42-3.08-1.25-4.33-.83-1.25-1.96-2.22-3.37-2.91-1.17-.57-2.47-.87-3.91-.98zm.98 12.54c-.74.74-1.75 1.11-3.03 1.11h-4.77V5.99h4.77c1.28 0 2.29.37 3.03 1.11.74.74 1.11 1.76 1.11 3.03 0 1.27-.37 2.29-1.11 3.04z"/>
    <path d="M76.32 1.527v26.888h4.84v-9.82l7.26 9.82h6.02l-8.87-11.51 8.34-10.89h-5.82l-6.93 9.48v-9.48h-4.84z"/>
    <path d="M60.36 23.935v-4.75h10.47v-4.38H60.36V6.015h11.41V1.527H55.52v26.888h16.45v-4.48H60.36z"/>
    <path d="M45.32 1.527L39.55 22.615 33.8 1.527h-5.06l8.52 26.888h4.56l8.57-26.888h-5.07z"/>
    <path d="M18.59 1.527v26.888h4.84V1.527h-4.84z"/>
    <path d="M5.84 1.527H0v26.888h4.84V12.295l9.37 16.12h5.06l-9.73-16.5 9.23-10.388h-5.36l-7.57 8.79V1.527z"/>
  </g>
</svg>
